Coordinates
version=1
nRows=12
nColumns=24
inDegrees=yes

Units are S.I. units (second, meters, Newtons, ...)
Angles are in degrees.

endheader
time	pelvis_tilt	pelvis_list	pelvis_rotation	pelvis_tx	pelvis_ty	pelvis_tz	hip_flexion_r	hip_adduction_r	hip_rotation_r	knee_angle_r	ankle_angle_r	subtalar_angle_r	mtp_angle_r	hip_flexion_l	hip_adduction_l	hip_rotation_l	knee_angle_l	ankle_angle_l	subtalar_angle_l	mtp_angle_l	lumbar_extension	lumbar_bending	lumbar_rotation
      6.62000000	      8.81781669	      2.05730447	      4.59222514	     -0.78555702	      0.89367241	      0.30747798	     13.96132354	     -0.33071525	     -2.49967549	     -5.99781187	     15.66670686	      6.50095774	      0.00000000	    -32.39195577	      6.55353803	      7.95757645	     -8.44820992	     10.65559582	     -9.80894356	      0.00000000	    -16.87849844	      0.70430220	    -17.56299351
      6.63000000	      8.93666803	      1.60848489	      4.23277684	     -0.76984804	      0.89235119	      0.30812969	     14.51897174	      0.32394172	     -2.73965337	     -8.57739870	     15.10501263	      6.61718992	      0.00000000	    -31.56831095	      6.04664875	      4.76920014	    -11.57624067	     11.21022336	     -5.90732605	      0.00000000	    -16.66508385	      1.32865284	    -17.13425576
      6.64000000	      9.02795512	      1.11716874	      3.96398797	     -0.75415101	      0.89129561	      0.30870443	     15.06241191	      0.97182685	     -2.77885216	    -11.13913818	     14.43014844	      6.57917971	      0.00000000	    -30.53975791	      5.35518700	      2.12627315	    -14.91374962	     10.73606413	     -2.97007722	      0.00000000	    -16.42786393	      2.02883979	    -16.76897349
      6.65000000	      9.29027259	      0.52474389	      3.84277206	     -0.73857681	      0.89076175	      0.30909131	     15.37350510	      1.68147228	     -2.83500017	    -13.63697560	     13.86954590	      6.50353344	      0.00000000	    -29.49494513	      4.39703171	     -0.05954380	    -18.44772900	      9.37637035	     -0.75075635	      0.00000000	    -16.42024163	      2.91329669	    -16.49012303
      6.66000000	      9.62251394	     -0.09683058	      3.89808909	     -0.72324752	      0.89061870	      0.30926118	     15.55714067	      2.37500147	     -2.98616965	    -16.05532000	     13.62227683	      6.44947642	      0.00000000	    -28.26049595	      3.25289848	     -1.76265886	    -22.24737634	      7.17589035	      0.86389868	      0.00000000	    -16.53958700	      3.87534694	    -16.35658095
      6.67000000	     10.01596703	     -0.72058773	      4.16813062	     -0.70824565	      0.89079789	      0.30918912	     15.58634849	      3.03317819	     -3.28494918	    -18.34068393	     13.80085267	      6.39677036	      0.00000000	    -26.79230264	      1.93551195	     -3.02442756	    -26.32233421	      4.28629533	      2.07616218	      0.00000000	    -16.77973185	      4.87567457	    -16.39778719
      6.68000000	     10.45445129	     -1.35757607	      4.67742976	     -0.69361747	      0.89119613	      0.30887696	     15.41846671	      3.68950578	     -3.72670603	    -20.38378816	     14.32956255	      6.20554601	      0.00000000	    -25.07366939	      0.44506024	     -3.84835869	    -30.62835443	      0.92003918	      2.89765796	      0.00000000	    -17.11590315	      5.92146428	    -16.61481079
      6.69000000	     10.72557099	     -1.91911334	      5.42769662	     -0.67939460	      0.89150347	      0.30840676	     15.24973457	      4.25231015	     -4.28116001	    -22.13515659	     15.21542504	      5.98413984	      0.00000000	    -22.86945710	     -1.10521449	     -4.22455187	    -35.15241102	     -2.53662463	      3.69019315	      0.00000000	    -17.27980281	      6.86280084	    -17.04354613
      6.70000000	     10.94124218	     -2.51187027	      6.41596213	     -0.66558698	      0.89181139	      0.30777596	     14.89460811	      4.87568206	     -4.88977093	    -23.43198967	     16.17625552	      5.47397802	      0.00000000	    -20.36113292	     -2.75023032	     -4.14130157	    -39.75002637	     -5.74670903	      4.19056406	      0.00000000	    -17.38804852	      7.83928586	    -17.56895233
      6.71000000	     10.98133160	     -3.09654581	      7.55091449	     -0.65219087	      0.89196756	      0.30711198	     14.51692519	      5.52294571	     -5.48881731	    -24.31520836	     17.15278154	      4.79303129	      0.00000000	    -17.46979635	     -4.36620385	     -3.71687803	    -44.32983692	     -8.29212386	      4.50678434	      0.00000000	    -17.29399864	      8.76502396	    -18.21001838
      6.72000000	     10.90605947	     -3.68526883	      8.79493979	     -0.63918497	      0.89212994	      0.30640502	     14.04644206	      6.21120511	     -6.06858046	    -24.74530125	     18.04609874	      3.99047489	      0.00000000	    -14.32707255	     -5.87834828	     -2.95713057	    -48.76118677	     -9.89629934	      4.60032704	      0.00000000	    -17.05413439	      9.65271893	    -18.87118760
      6.73000000	     10.75004727	     -4.24670126	     10.04564447	     -0.62650986	      0.89243911	      0.30569417	     13.48522091	      6.90849719	     -6.58744084	    -24.79516156	     18.84291739	      3.16718135	      0.00000000	    -11.05612367	     -7.18808818	     -2.01377933	    -52.91273669	    -10.43799854	      4.45096429	      0.00000000	    -16.71709774	     10.46247624	    -19.51521824
